Coordinates
version=1
nRows=14
nColumns=63
inDegrees=yes

Units are S.I. units (second, meters, Newtons, ...)
If the header above contains a line with 'inDegrees', this indicates whether rotational values are in degrees (yes) or radians (no).

endheader
time	pelvis_tilt	pelvis_list	pelvis_rotation	pelvis_tx	pelvis_ty	pelvis_tz	hip_flexion_r	hip_adduction_r	hip_rotation_r	knee_angle_r	knee_angle_r_beta	ankle_angle_r	subtalar_angle_r	mtp_angle_r	hip_flexion_l	hip_adduction_l	hip_rotation_l	knee_angle_l	knee_angle_l_beta	ankle_angle_l	subtalar_angle_l	mtp_angle_l	L5_S1_Flex_Ext	L5_S1_Lat_Bending	L5_S1_axial_rotation	L4_L5_Flex_Ext	L4_L5_Lat_Bending	L4_L5_axial_rotation	L3_L4_Flex_Ext	L3_L4_Lat_Bending	L3_L4_axial_rotation	L2_L3_Flex_Ext	L2_L3_Lat_Bending	L2_L3_axial_rotation	L1_L2_Flex_Ext	L1_L2_Lat_Bending	L1_L2_axial_rotation	L1_T12_Flex_Ext	L1_T12_Lat_Bending	L1_T12_axial_rotation	Abs_r3	Abs_r2	Abs_r1	Abs_t1	Abs_t2	neck_flexion	neck_bending	neck_rotation	arm_flex_r	arm_add_r	arm_rot_r	elbow_flex_r	pro_sup_r	wrist_flex_r	wrist_dev_r	arm_flex_l	arm_add_l	arm_rot_l	elbow_flex_l	pro_sup_l	wrist_flex_l	wrist_dev_l
5.525424	50.750933	-52.366250	133.251413	0.167763	0.892883	0.521857	84.813284	12.361684	-10.401863	17.914485	0.312667	30.422629	-7.675241	0.000000	96.443231	-11.701282	8.087297	30.814851	0.537821	40.070148	19.437377	0.000000	-0.319155	-1.162695	2.821540	-0.592704	-1.546384	2.997886	-0.524340	-2.826977	2.997886	-0.364763	-2.826977	2.468848	-0.296368	-2.370968	2.292501	-0.182365	-1.801015	2.116155	-2.279695	-13.152640	15.692559	0.000000	0.000000	7.923562	-43.646209	-17.694108	239.170511	-193.355000	347.191718	-0.548330	1.060129	-36.355386	-13.584157	241.798886	-171.133056	37.442013	3.382215	50.098076	-39.124325	23.797226
5.542373	47.169200	-54.100929	130.387850	0.168495	0.892055	0.523486	85.147700	11.763788	-8.666598	19.331256	0.337394	30.611348	-7.365016	0.000000	95.771715	-11.600228	5.750271	30.669025	0.535275	40.121992	19.476408	0.000000	-0.176363	-1.586887	2.098135	-0.327524	-2.110560	2.229269	-0.289747	-3.858358	2.229269	-0.201565	-3.858358	1.835869	-0.163771	-3.235981	1.704735	-0.100774	-2.458088	1.573602	-1.259744	-17.951187	11.669200	0.000000	0.000000	10.709286	-40.236949	-22.939912	238.538573	-194.897616	339.129193	-0.057952	1.155536	-31.918068	-16.463287	240.258956	-165.848344	34.586807	3.856588	42.803739	-33.351309	19.105486
5.559322	43.789612	-55.577876	127.456085	0.168912	0.891015	0.525574	85.648602	11.226437	-7.215709	20.865539	0.364172	30.821375	-6.941481	0.000000	95.258488	-11.502794	3.728646	30.659625	0.535111	40.119598	19.402422	0.000000	-0.015326	-1.967821	1.414965	-0.028462	-2.617202	1.503400	-0.025179	-4.784560	1.503400	-0.017516	-4.784560	1.238094	-0.014232	-4.012781	1.149659	-0.008757	-3.048155	1.061223	-0.109473	-22.260385	7.869609	0.000000	0.000000	14.240776	-36.444352	-27.292811	237.794131	-196.456867	333.142543	0.184829	1.184662	-26.528689	-18.988272	238.375958	-160.605405	30.114520	4.230662	35.932725	-26.202824	14.187625
5.576271	40.678867	-56.772650	124.569729	0.168898	0.890061	0.527829	86.208860	10.753102	-5.989773	22.449511	0.391818	31.019726	-6.469697	0.000000	94.832070	-11.429351	2.022555	30.773335	0.537096	40.063827	19.189357	0.000000	0.152616	-2.297402	0.776839	0.283423	-3.055544	0.825391	0.250732	-5.585902	0.825391	0.174424	-5.585902	0.679734	0.141719	-4.684861	0.631181	0.087205	-3.558675	0.582629	1.090118	-25.988665	4.320544	0.000000	0.000000	18.457711	-32.473199	-30.234278	236.793174	-197.933986	328.450613	0.248171	1.178095	-20.373621	-21.113318	236.128654	-155.491964	23.413080	4.474735	29.018952	-18.466476	9.680467
5.593220	37.898719	-57.729705	121.819321	0.168521	0.889368	0.529975	86.775780	10.355416	-4.843430	24.037816	0.419539	31.166640	-6.084908	0.000000	94.466520	-11.409448	0.586276	31.001664	0.541081	39.972694	18.838500	0.000000	0.322750	-2.579550	0.178199	0.599379	-3.430801	0.189337	0.530246	-6.271917	0.189337	0.368871	-6.271917	0.155924	0.299706	-5.260218	0.144787	0.184419	-3.995723	0.133649	2.305372	-29.180383	0.991090	0.000000	0.000000	23.201304	-28.469217	-31.550490	235.522773	-199.406571	325.165048	0.096017	1.141668	-13.986143	-22.773308	233.450001	-150.451463	14.384634	4.596689	20.732077	-13.673166	5.509787
5.610169	35.126791	-58.384216	119.049379	0.167609	0.889615	0.531406	87.022619	9.968868	-3.666463	25.542790	0.445806	31.255461	-5.726631	0.000000	93.808542	-11.409817	-0.738237	31.219124	0.544877	39.831811	18.368443	0.000000	0.472544	-2.824989	-0.334577	0.877562	-3.757235	-0.355488	0.776343	-6.868678	-0.355488	0.540071	-6.868678	-0.292755	0.438805	-5.760718	-0.271844	0.270012	-4.375908	-0.250933	3.375336	-31.956841	-1.860819	0.000000	0.000000	27.539704	-24.615369	-31.713714	234.336500	-201.129678	326.893897	-1.308739	-1.416129	-7.740230	-24.558604	230.622731	-145.892030	4.394025	4.544941	12.386962	-10.328578	1.731557
5.627119	32.423397	-58.669192	116.320371	0.166038	0.890815	0.532077	86.821795	9.643594	-2.545683	26.936085	0.470123	31.265799	-5.463116	0.000000	92.824204	-11.469153	-1.837535	31.497340	0.549732	39.685249	17.799462	0.000000	0.590010	-3.016549	-0.667483	1.095707	-4.012010	-0.709200	0.969327	-7.334437	-0.709200	0.674322	-7.334437	-0.584047	0.547883	-6.151347	-0.542330	0.337132	-4.672634	-0.500612	4.214381	-34.123805	-3.712339	0.000000	0.000000	30.427010	-20.803094	-31.800802	232.725177	-201.751615	326.835344	-1.803706	-1.689933	-3.616480	-24.713906	228.163672	-142.451979	-5.513947	4.330653	6.824984	-8.226308	-1.659597
5.644068	29.786484	-58.425226	113.649909	0.163632	0.893170	0.531787	86.010453	9.371924	-1.634773	28.134735	0.491044	31.211571	-5.190072	0.000000	91.400497	-11.556145	-2.641585	31.817697	0.555324	39.540227	17.146510	0.000000	0.664159	-3.140245	-0.815072	1.233410	-4.176526	-0.866014	1.091147	-7.635192	-0.866014	0.759068	-7.635192	-0.713188	0.616738	-6.403588	-0.662246	0.379501	-4.864239	-0.611304	4.744023	-35.523079	-4.533186	0.000000	0.000000	31.792037	-16.857630	-31.625864	230.855613	-201.203706	325.788175	-1.535030	-0.808524	-1.434999	-23.576590	226.182649	-140.465216	-14.092987	3.956752	2.744717	-7.522922	-4.630997
5.661017	27.408721	-57.525899	111.225903	0.160041	0.896677	0.530448	84.528174	9.147995	-1.173340	29.050741	0.507031	31.088721	-4.816899	0.000000	89.546339	-11.632709	-3.009545	32.167569	0.561430	39.407773	16.431894	0.000000	0.695355	-3.168187	-0.806560	1.291343	-4.213689	-0.856970	1.142398	-7.703130	-0.856970	0.794721	-7.703130	-0.705740	0.645706	-6.460567	-0.655330	0.397326	-4.907522	-0.604920	4.966850	-35.839166	-4.485846	0.000000	0.000000	31.781996	-13.028788	-30.652143	228.800767	-199.515997	324.094910	-0.608131	0.646827	-0.855661	-21.628226	224.555027	-139.948122	-21.621559	3.429112	0.358963	-8.303639	-7.149949
5.677966	25.518059	-55.934222	109.236979	0.155114	0.901156	0.528079	82.418410	9.002835	-1.255830	29.592481	0.516486	30.894250	-4.348980	0.000000	87.351410	-11.676720	-2.818925	32.530198	0.567759	39.303424	15.661360	0.000000	0.690263	-3.079458	-0.662487	1.281887	-4.095679	-0.703892	1.134033	-7.487394	-0.703892	0.788901	-7.487394	-0.579676	0.640978	-6.279631	-0.538270	0.394416	-4.770081	-0.496865	4.930477	-34.835445	-3.684552	0.000000	0.000000	30.721342	-9.786447	-28.408471	226.520170	-196.763912	321.360602	0.869356	2.501271	-1.925369	-19.840003	223.145380	-140.755888	-27.822329	2.747562	-0.113315	-10.723630	-9.083826
5.694915	24.331871	-53.561311	107.898137	0.148354	0.906552	0.524627	79.670708	8.928412	-2.130811	29.660750	0.517678	30.673451	-3.660199	0.000000	84.859711	-11.628780	-1.906776	32.868512	0.573664	39.241163	14.891473	0.000000	0.653935	-2.843669	-0.429877	1.214424	-3.782080	-0.456745	1.074351	-6.914096	-0.456745	0.747383	-6.914096	-0.376143	0.607244	-5.798810	-0.349275	0.373659	-4.404843	-0.322408	4.670996	-32.168151	-2.390849	0.000000	0.000000	29.093684	-7.650019	-24.290785	224.073883	-193.121248	317.559081	2.778697	4.443240	-3.153952	-18.581035	221.440993	-142.743691	-33.833047	1.925341	1.422954	-11.688608	-10.325436
5.711864	23.958598	-50.652224	107.252858	0.140522	0.912307	0.520464	76.553951	8.905093	-3.836139	29.340491	0.512088	30.520003	-2.555363	0.000000	82.315064	-11.529136	-0.405611	33.226430	0.579911	39.254934	14.183213	0.000000	0.600614	-2.490316	-0.188995	1.115400	-3.312120	-0.200807	0.986748	-6.054954	-0.200807	0.686441	-6.054954	-0.165370	0.557730	-5.078252	-0.153558	0.343191	-3.857499	-0.141746	4.290124	-28.170951	-1.051132	0.000000	0.000000	28.526661	-6.417640	-17.156370	221.592115	-189.146946	312.739999	5.040800	6.465804	-3.272785	-17.280486	219.405751	-145.437099	-39.024799	1.007412	4.513575	-11.216190	-10.766754
5.728814	24.193416	-47.562219	107.169079	0.132748	0.918025	0.515939	73.283515	8.910889	-5.957592	28.780501	0.502315	30.475531	-1.248494	0.000000	79.816458	-11.432800	1.352997	33.616935	0.586726	39.362434	13.586299	0.000000	0.543532	-2.094311	0.018111	1.009393	-2.785433	0.019243	0.892969	-5.092107	0.019243	0.621203	-5.092107	0.015847	0.504724	-4.270719	0.014715	0.310574	-3.244087	0.013583	3.882395	-23.691263	0.100727	0.000000	0.000000	28.470293	-5.265379	-8.704035	219.283814	-185.214204	308.094244	7.448333	7.531522	-3.081117	-16.144604	216.866398	-148.794970	-36.783449	1.064480	3.386780	-11.055580	-10.333816
5.745763	24.217253	-44.806425	107.106286	0.125787	0.923755	0.510769	69.956588	8.830978	-7.774009	28.098374	0.490409	30.551938	0.078090	0.000000	77.170569	-11.315568	2.688852	33.829477	0.590436	39.533796	13.141140	0.000000	0.491542	-1.767427	0.161991	0.912842	-2.350679	0.172115	0.807554	-4.297323	0.172115	0.561783	-4.297323	0.141742	0.456446	-3.604138	0.131618	0.280867	-2.737745	0.121493	3.511034	-19.993493	0.900945	0.000000	0.000000	28.425959	-3.850396	-1.151666	217.036054	-181.608656	302.533279	10.040276	9.062889	-3.166607	-14.895768	214.716685	-151.842690	-34.284773	0.958064	4.294914	-11.063518	-9.627320
